<svg xmlns="http://www.w3.org/2000/svg" fill="none" viewBox="0 0 43 40" height="40" width="43">
<g clip-path="url(#clip0_505_3239)">
<g clip-path="url(#clip1_505_3239)">
<path fill="#484848" d="M9.10873 34.2999C9.10873 33.7035 9.49589 33.2135 10.1293 33.2135C10.7346 33.2135 11.1428 33.6821 11.1428 34.2999C11.1428 34.9177 10.7346 35.3864 10.1293 35.3864C9.49589 35.3864 9.10873 34.8965 9.10873 34.2999ZM11.8326 34.2999V32.6028H11.1006V33.0146C10.8683 32.7093 10.5164 32.5176 10.0379 32.5176C9.09473 32.5176 8.35575 33.2632 8.35575 34.2999C8.35575 35.3368 9.09473 36.0825 10.0379 36.0825C10.5164 36.0825 10.8683 35.8908 11.1006 35.5854V35.9973H11.8326V34.2999ZM36.5511 34.2999C36.5511 33.7035 36.9382 33.2135 37.5718 33.2135C38.1768 33.2135 38.5851 33.6821 38.5851 34.2999C38.5851 34.9177 38.1768 35.3864 37.5718 35.3864C36.9382 35.3864 36.5511 34.8965 36.5511 34.2999ZM39.2749 34.2999V31.2394H38.5428V33.0146C38.3105 32.7093 37.9586 32.5176 37.4802 32.5176C36.537 32.5176 35.7979 33.2632 35.7979 34.2999C35.7979 35.3368 36.537 36.0825 37.4802 36.0825C37.9586 36.0825 38.3105 35.8908 38.5428 35.5854V35.9973H39.2749V34.2999ZM20.912 33.178C21.3836 33.178 21.6862 33.4762 21.7636 34.0017H20.0181C20.0956 33.5118 20.3912 33.178 20.912 33.178ZM20.9262 32.5176C19.9407 32.5176 19.2509 33.242 19.2509 34.2999C19.2509 35.3794 19.9689 36.0825 20.9754 36.0825C21.4822 36.0825 21.9466 35.9546 22.3549 35.6067L21.9959 35.0598C21.7144 35.2871 21.3554 35.4149 21.0176 35.4149C20.546 35.4149 20.1167 35.1948 20.0111 34.584H22.5097C22.5167 34.4916 22.5238 34.3994 22.5238 34.2999C22.5167 33.242 21.8692 32.5176 20.9262 32.5176ZM29.7591 34.2999C29.7591 33.7035 30.1464 33.2135 30.7796 33.2135C31.385 33.2135 31.7932 33.6821 31.7932 34.2999C31.7932 34.9177 31.385 35.3864 30.7796 35.3864C30.1464 35.3864 29.7591 34.8965 29.7591 34.2999ZM32.4831 34.2999V32.6028H31.751V33.0146C31.5187 32.7093 31.1667 32.5176 30.6881 32.5176C29.745 32.5176 29.006 33.2632 29.006 34.2999C29.006 35.3368 29.745 36.0825 30.6881 36.0825C31.1667 36.0825 31.5187 35.8908 31.751 35.5854V35.9973H32.4831V34.2999ZM25.6276 34.2999C25.6276 35.3297 26.3385 36.0825 27.4225 36.0825C27.9293 36.0825 28.2669 35.9689 28.6331 35.6777L28.2811 35.0812C28.0067 35.2799 27.7181 35.3864 27.4013 35.3864C26.8171 35.3794 26.3878 34.9533 26.3878 34.2999C26.3878 33.6467 26.8171 33.2206 27.4013 33.2135C27.7181 33.2135 28.0067 33.3199 28.2811 33.5189L28.6331 32.9224C28.2669 32.6312 27.9293 32.5176 27.4225 32.5176C26.3385 32.5176 25.6276 33.2703 25.6276 34.2999ZM35.0591 32.5176C34.6367 32.5176 34.3622 32.7165 34.1721 33.0146V32.6028H33.4471V35.9973H34.1792V34.0941C34.1792 33.5331 34.4185 33.2206 34.8972 33.2206C35.045 33.2206 35.1999 33.242 35.3547 33.3058L35.58 32.6099C35.4177 32.5461 35.2066 32.5176 35.0591 32.5176ZM15.4503 32.8726C15.0983 32.6383 14.6127 32.5176 14.0779 32.5176C13.2261 32.5176 12.6772 32.9295 12.6772 33.604C12.6772 34.1579 13.0854 34.4987 13.8385 34.6052L14.1833 34.655C14.5845 34.7118 14.7747 34.8183 14.7747 35.0101C14.7747 35.2729 14.5071 35.422 14.0075 35.422C13.5007 35.422 13.1347 35.2587 12.8884 35.0669L12.5435 35.6422C12.9446 35.9401 13.4515 36.0825 14.0003 36.0825C14.9717 36.0825 15.5347 35.6209 15.5347 34.9746C15.5347 34.378 15.0913 34.0656 14.3593 33.9591L14.0145 33.9093C13.6977 33.8667 13.4444 33.8029 13.4444 33.5757C13.4444 33.3271 13.6836 33.178 14.0849 33.178C14.5141 33.178 14.9295 33.3414 15.1336 33.4692L15.4503 32.8726ZM24.8886 32.5176C24.4664 32.5176 24.1919 32.7165 24.0019 33.0146V32.6028H23.2769V35.9973H24.0089V34.0941C24.0089 33.5331 24.2481 33.2206 24.7268 33.2206C24.8746 33.2206 25.0294 33.242 25.1842 33.3058L25.4094 32.6099C25.2476 32.5461 25.0364 32.5176 24.8886 32.5176ZM18.6457 32.6028H17.4492V31.5731H16.7102V32.6028H16.0274V33.2775H16.7102V34.8255C16.7102 35.6138 17.0128 36.0825 17.8785 36.0825C18.1951 36.0825 18.5612 35.9831 18.7935 35.8198L18.5823 35.1877C18.3641 35.3154 18.1248 35.3794 17.9348 35.3794C17.5688 35.3794 17.4492 35.1522 17.4492 34.8112V33.2775H18.6457V32.6028ZM7.70817 35.9973V33.8667C7.70817 33.0644 7.20141 32.5247 6.385 32.5176C5.95564 32.5105 5.51227 32.6454 5.20251 33.1211C4.97029 32.7448 4.60431 32.5176 4.09052 32.5176C3.73155 32.5176 3.37959 32.6241 3.10516 33.0218V32.6028H2.37305V35.9973H3.11217V34.1153C3.11217 33.5259 3.43594 33.2135 3.93559 33.2135C4.42129 33.2135 4.66767 33.5331 4.66767 34.1082V35.9973H5.40668V34.1153C5.40668 33.5259 5.74446 33.2135 6.23021 33.2135C6.72982 33.2135 6.96905 33.5331 6.96905 34.1082V35.9973H7.70817Z"></path>
<path fill="#8C8C8C" d="M26.2939 26.8354H15.207V6.73448H26.2939V26.8354Z"></path>
<path fill="#6A6A6A" d="M15.9109 16.7852C15.9109 12.7072 17.8034 9.07545 20.7504 6.73469C18.5952 5.02278 15.8757 4.00151 12.9201 4.00151C5.92276 4.00151 0.250244 9.72504 0.250244 16.7852C0.250244 23.8453 5.92276 29.5688 12.9201 29.5688C15.8757 29.5688 18.5952 28.5475 20.7504 26.8357C17.8034 24.4949 15.9109 20.863 15.9109 16.7852Z"></path>
<path fill="#AEAEAE" d="M41.2505 16.7852C41.2505 23.8453 35.5783 29.5688 28.5808 29.5688C25.6252 29.5688 22.9057 28.5475 20.7505 26.8357C23.6975 24.4949 25.59 20.863 25.59 16.7852C25.59 12.7072 23.6975 9.07545 20.7505 6.73469C22.9057 5.02278 25.6252 4.00151 28.5808 4.00151C35.5783 4.00151 41.2505 9.72504 41.2505 16.7852Z"></path>
</g>
</g>
<defs>
<clipPath id="clip0_505_3239">
<rect transform="translate(0.25)" fill="white" height="40" width="42"></rect>
</clipPath>
<clipPath id="clip1_505_3239">
<rect transform="translate(0.25 4)" fill="white" height="32" width="41"></rect>
</clipPath>
</defs>
</svg>
