<svg xmlns="http://www.w3.org/2000/svg" fill="none" viewBox="0 0 47 40" height="40" width="47">
<g clip-path="url(#clip0_505_3243)">
<g clip-path="url(#clip1_505_3243)">
<path fill="#6A6A6A" d="M2.29944 23.5654C2.16715 23.5654 2.05506 23.6603 2.03436 23.7892L0.505959 33.3791C0.484752 33.5129 0.577153 33.6388 0.712472 33.6598C0.725095 33.6618 0.738223 33.6628 0.750846 33.6628H2.56352C2.6953 33.6628 2.8079 33.5679 2.8286 33.439L3.27748 30.6227C3.29818 30.4938 3.41027 30.3989 3.54256 30.3989H5.19062C7.1164 30.3989 8.75083 29.0087 9.04974 27.1255C9.35068 25.2258 7.85106 23.5699 5.72483 23.5654H2.29944ZM4.06162 25.7059H5.38047C6.46606 25.7059 6.8195 26.3398 6.70791 27.0406C6.59633 27.7429 6.04697 28.2605 4.99673 28.2605H3.65465L4.06162 25.7059ZM12.7367 26.3578C12.2787 26.3593 11.7521 26.4522 11.1608 26.6959C9.8046 27.2554 9.15325 28.4113 8.87655 29.254C8.87655 29.254 7.99597 31.8251 9.98536 33.2377C9.98536 33.2377 11.8303 34.5974 13.9066 33.1538L13.8707 33.3791C13.8495 33.5129 13.9419 33.6388 14.0773 33.6598C14.0899 33.6618 14.1025 33.6628 14.1151 33.6628H15.8359C15.9682 33.6628 16.0803 33.5679 16.101 33.439L17.1477 26.8718C17.1689 26.7379 17.077 26.612 16.9412 26.591C16.9285 26.589 16.9154 26.588 16.9028 26.588H15.182C15.0497 26.588 14.9376 26.683 14.9169 26.8118L14.8609 27.1655C14.8614 27.165 14.1096 26.3528 12.7367 26.3578ZM12.7927 28.4323C12.9902 28.4323 13.1709 28.4593 13.3335 28.5107C14.0762 28.7465 14.4968 29.4523 14.3752 30.2171C14.2247 31.1592 13.4441 31.8525 12.4428 31.8525C12.2454 31.8525 12.0646 31.8256 11.902 31.7741C11.1598 31.5383 10.7362 30.8325 10.8579 30.0677C11.0083 29.1261 11.7915 28.4323 12.7927 28.4323Z"></path>
<path fill="#8C8C8C" d="M27.0812 23.5654C26.9489 23.5654 26.8368 23.6603 26.8161 23.7892L25.2877 33.3791C25.2665 33.5129 25.3589 33.6388 25.4942 33.6598C25.5068 33.6618 25.52 33.6628 25.5326 33.6628H27.3453C27.477 33.6628 27.5896 33.5679 27.6103 33.439L28.0592 30.6227C28.0799 30.4938 28.192 30.3989 28.3243 30.3989H29.9724C31.8981 30.3989 33.5326 29.0087 33.831 27.1255C34.1324 25.2258 32.6323 23.5699 30.5066 23.5654H27.0812ZM28.8434 25.7059H30.1622C31.2478 25.7059 31.6012 26.3398 31.4897 27.0406C31.3781 27.7429 30.8292 28.2605 29.7785 28.2605H28.4364L28.8434 25.7059ZM37.5179 26.3578C37.0599 26.3593 36.5333 26.4522 35.9421 26.6959C34.5858 27.2554 33.9345 28.4113 33.6578 29.254C33.6578 29.254 32.7777 31.8251 34.7671 33.2377C34.7671 33.2377 36.6116 34.5974 38.6883 33.1538L38.6525 33.3791C38.6313 33.5129 38.7237 33.6388 38.859 33.6598C38.8716 33.6618 38.8847 33.6628 38.8974 33.6628H40.6181C40.7504 33.6628 40.8625 33.5679 40.8832 33.439L41.9304 26.8718C41.9516 26.7379 41.8597 26.612 41.7239 26.591C41.7113 26.589 41.6982 26.588 41.685 26.588H39.9643C39.832 26.588 39.7199 26.683 39.6992 26.8118L39.6431 27.1655C39.6431 27.165 38.8913 26.3528 37.5179 26.3578ZM37.574 28.4323C37.7714 28.4323 37.9521 28.4593 38.1147 28.5107C38.8575 28.7465 39.2781 29.4523 39.1564 30.2171C39.0059 31.1592 38.2253 31.8525 37.224 31.8525C37.0266 31.8525 36.8459 31.8256 36.6833 31.7741C35.941 31.5383 35.5174 30.8325 35.6391 30.0677C35.7896 29.1261 36.5727 28.4323 37.574 28.4323Z"></path>
<path fill="#6A6A6A" d="M17.9647 26.5874C17.8284 26.5874 17.7314 26.7193 17.7728 26.8477L19.6597 32.6396L17.9536 35.369C17.8708 35.5014 17.9672 35.6727 18.1243 35.6727H20.1404C20.2576 35.6727 20.3666 35.6118 20.4272 35.5129L25.6961 26.8896C25.7769 26.7572 25.6804 26.5879 25.5239 26.5879H23.5077C23.3891 26.5879 23.2795 26.6498 23.2194 26.7507L21.1452 30.2149L20.0925 26.7762C20.0581 26.6643 19.9536 26.5879 19.836 26.5879L17.9647 26.5874Z"></path>
<path fill="#8C8C8C" d="M43.8854 23.5654C43.7536 23.5654 43.641 23.6603 43.6203 23.7892L42.0914 33.3791C42.0702 33.5129 42.1621 33.6388 42.2979 33.6598C42.3106 33.6618 42.3237 33.6628 42.3368 33.6628H44.1495C44.2813 33.6628 44.3939 33.5679 44.4146 33.439L45.943 23.8492C45.9642 23.7153 45.8718 23.5894 45.7365 23.5684C45.7238 23.5664 45.7112 23.5654 45.6986 23.5654H43.8854Z"></path>
<path fill="#484848" d="M21.7207 7.6421C21.4793 7.6421 21.2743 7.81594 21.2365 8.05171L20.4321 13.1004C20.4695 12.8646 20.675 12.6908 20.9163 12.6908H23.2743C25.6475 12.6908 27.6611 10.9784 28.0287 8.65713C28.0559 8.4838 28.0716 8.30897 28.0751 8.13363C27.4723 7.82093 26.7638 7.6416 25.9873 7.6416L21.7207 7.6421Z"></path>
<path fill="#8C8C8C" d="M28.0753 8.13428C28.0718 8.30961 28.0561 8.48444 28.0288 8.65778C27.6608 10.9786 25.6471 12.6914 23.2745 12.6914H20.9165C20.6752 12.6914 20.4697 12.8648 20.4323 13.101L19.6926 17.7406L19.2291 20.6513C19.1947 20.8661 19.3427 21.0679 19.5593 21.1019C19.58 21.1054 19.6012 21.1069 19.6219 21.1069H22.1813C22.4227 21.1069 22.6277 20.9331 22.6656 20.6973L23.3396 16.4673C23.3775 16.2316 23.583 16.0577 23.8244 16.0577H25.3311C27.7042 16.0577 29.7178 14.3454 30.0854 12.0241C30.3469 10.3766 29.5083 8.87807 28.0753 8.13428Z"></path>
<path fill="#6A6A6A" d="M18.8136 4.27686C18.5722 4.27686 18.3667 4.45019 18.3294 4.68596L16.3213 17.2844C16.2834 17.5237 16.4702 17.74 16.7146 17.74H19.6927L20.4324 13.1004L21.2372 8.05176C21.2751 7.81598 21.4801 7.64265 21.7214 7.64215H25.988C26.7646 7.64215 27.4725 7.82147 28.0759 8.13418C28.1173 6.02119 26.3546 4.27686 23.932 4.27686H18.8136Z"></path>
</g>
</g>
<defs>
<clipPath id="clip0_505_3243">
<rect transform="translate(0.25)" fill="white" height="40" width="46"></rect>
</clipPath>
<clipPath id="clip1_505_3243">
<rect transform="translate(0.25 4)" fill="white" height="32" width="46"></rect>
</clipPath>
</defs>
</svg>
