<svg xmlns="http://www.w3.org/2000/svg" fill="none" viewBox="0 0 51 40" height="40" width="51">
<g clip-path="url(#clip0_505_3241)">
<path fill="#8C8C8C" d="M19.4642 12.2933L13.1781 27.7268H9.07693L5.98353 15.4101C5.79572 14.6515 5.63242 14.3736 5.06126 14.054C4.12873 13.5334 2.58878 13.045 1.23389 12.7418L1.32591 12.2933H7.92759C8.76909 12.2933 9.52556 12.8697 9.71662 13.8669L11.3503 22.7975L15.388 12.293H19.4642V12.2933ZM35.5334 22.6879C35.5499 18.6145 30.0598 18.3901 30.0976 16.5705C30.1093 16.0167 30.6217 15.4279 31.7433 15.2776C32.2992 15.2027 33.8309 15.1456 35.5682 15.9683L36.2496 12.6955C35.3161 12.3468 34.115 12.0112 32.6206 12.0112C28.7857 12.0112 26.0869 14.109 26.0641 17.1129C26.0394 19.3348 27.9905 20.5746 29.4604 21.3129C30.9726 22.069 31.48 22.5548 31.4742 23.2311C31.4635 24.2664 30.2681 24.7234 29.151 24.7414C27.201 24.7723 26.0694 24.1985 25.1674 23.7669L24.4642 27.1481C25.3707 27.576 27.0439 27.9494 28.7787 27.9682C32.8546 27.9682 35.5209 25.8964 35.5334 22.6879ZM45.6599 27.7268H49.2482L46.116 12.2933H42.804C42.0593 12.2933 41.4311 12.7395 41.1531 13.4256L35.3311 27.7268H39.405L40.2138 25.4216H45.1915L45.6599 27.7268ZM41.3309 22.2584L43.373 16.4637L44.5483 22.2584H41.3309ZM25.0076 12.2933L21.7994 27.7268H17.9198L21.1292 12.2933H25.0076Z"></path>
</g>
<defs>
<clipPath id="clip0_505_3241">
<rect transform="translate(1.25 12)" fill="white" height="16" width="48"></rect>
</clipPath>
</defs>
</svg>
